<svg xmlns="http://www.w3.org/2000/svg" viewBox="0 0 100 100" width="200" height="200">
  <circle cx="50" cy="50" r="50" fill="#ffdbca"/>
  <path d="M50 20 Q38 21 37 36 Q40 42 50 42 Q60 42 63 36 Q62 21 50 20Z" fill="#2C1810"/>
  <!-- Face -->
  <ellipse cx="50" cy="53" rx="17" ry="19" fill="#4C3220"/>
  <!-- Ears -->
  <ellipse cx="33" cy="53" rx="3.5" ry="4.5" fill="#4C3220"/>
  <ellipse cx="67" cy="53" rx="3.5" ry="4.5" fill="#4C3220"/>
  <!-- Eyes -->
  <ellipse cx="43" cy="50" rx="3" ry="3" fill="white"/>
  <ellipse cx="57" cy="50" rx="3" ry="3" fill="white"/>
  <circle cx="43" cy="50.5" r="2" fill="#2C1810"/>
  <circle cx="57" cy="50.5" r="2" fill="#2C1810"/>
  <circle cx="44" cy="49.5" r="0.7" fill="white"/>
  <circle cx="58" cy="49.5" r="0.7" fill="white"/>
  <!-- Eyebrows (straighter for male) -->
  <path d="M40 46 Q43 45 46 46" fill="none" stroke="#2C1810" stroke-width="2" stroke-linecap="round"/>
  <path d="M54 46 Q57 45 60 46" fill="none" stroke="#2C1810" stroke-width="2" stroke-linecap="round"/>
  <!-- Nose -->
  <path d="M49 53 Q47 57 50 58 Q53 57 51 53Z" fill="#4C3220" filter="brightness(0.85)"/>
  <!-- Mouth -->
  <path d="M45 62 Q50 65 55 62" fill="none" stroke="#765848" stroke-width="1.8" stroke-linecap="round"/>
  
  <!-- Neck & Body -->
  <rect x="43" y="71" width="14" height="9" rx="3" fill="#4C3220"/>
  <path d="M24 100 Q28 78 50 76 Q72 78 76 100Z" fill="#765848"/>
</svg>