<svg xmlns="http://www.w3.org/2000/svg" viewBox="0 0 100 100" width="200" height="200">
  <circle cx="50" cy="50" r="50" fill="#f0eded"/>
  <path d="M50 20 Q36 22 35 40 Q38 46 50 46 Q62 46 65 40 Q64 22 50 20Z" fill="#F4E04D"/><rect x="47" y="10" width="6" height="14" rx="3" fill="#F4E04D"/>
  <!-- Face -->
  <ellipse cx="50" cy="53" rx="17" ry="19" fill="#E0A869"/>
  <!-- Ears -->
  <ellipse cx="33" cy="53" rx="3.5" ry="4.5" fill="#E0A869"/>
  <ellipse cx="67" cy="53" rx="3.5" ry="4.5" fill="#E0A869"/>
  <!-- Eyes -->
  <ellipse cx="43" cy="50" rx="3" ry="3" fill="white"/>
  <ellipse cx="57" cy="50" rx="3" ry="3" fill="white"/>
  <circle cx="43" cy="50.5" r="2" fill="#2C1810"/>
  <circle cx="57" cy="50.5" r="2" fill="#2C1810"/>
  <circle cx="44" cy="49.5" r="0.7" fill="white"/>
  <circle cx="58" cy="49.5" r="0.7" fill="white"/>
  <!-- Eyebrows (straighter for male) -->
  <path d="M40 46 Q43 45 46 46" fill="none" stroke="#F4E04D" stroke-width="2" stroke-linecap="round"/>
  <path d="M54 46 Q57 45 60 46" fill="none" stroke="#F4E04D" stroke-width="2" stroke-linecap="round"/>
  <!-- Nose -->
  <path d="M49 53 Q47 57 50 58 Q53 57 51 53Z" fill="#E0A869" filter="brightness(0.85)"/>
  <!-- Mouth -->
  <path d="M45 62 Q50 65 55 62" fill="none" stroke="#8B7355" stroke-width="1.8" stroke-linecap="round"/>
  <rect x="36" y="54" width="7" height="5" rx="2" fill="none" stroke="#555" stroke-width="1.5"/><rect x="57" y="54" width="7" height="5" rx="2" fill="none" stroke="#555" stroke-width="1.5"/><line x1="43" y1="56.5" x2="57" y2="56.5" stroke="#555" stroke-width="1"/>
  <!-- Neck & Body -->
  <rect x="43" y="71" width="14" height="9" rx="3" fill="#E0A869"/>
  <path d="M24 100 Q28 78 50 76 Q72 78 76 100Z" fill="#8B7355"/>
</svg>