<svg xmlns="http://www.w3.org/2000/svg" viewBox="0 0 100 100" width="200" height="200">
  <circle cx="50" cy="50" r="50" fill="#fdd4c0"/>
  <path d="M50 21 Q34 23 33 39 Q36 45 50 45 Q64 45 67 39 Q66 23 50 21Z" fill="#8B4513"/><path d="M34 36 Q32 30 34 26 Q40 22 50 21 Q60 22 66 26 Q68 30 66 36" fill="#8B4513"/>
  <!-- Face -->
  <ellipse cx="50" cy="53" rx="17" ry="19" fill="#FDBCB4"/>
  <!-- Ears -->
  <ellipse cx="33" cy="53" rx="3.5" ry="4.5" fill="#FDBCB4"/>
  <ellipse cx="67" cy="53" rx="3.5" ry="4.5" fill="#FDBCB4"/>
  <!-- Eyes -->
  <ellipse cx="43" cy="50" rx="3" ry="3" fill="white"/>
  <ellipse cx="57" cy="50" rx="3" ry="3" fill="white"/>
  <circle cx="43" cy="50.5" r="2" fill="#2C1810"/>
  <circle cx="57" cy="50.5" r="2" fill="#2C1810"/>
  <circle cx="44" cy="49.5" r="0.7" fill="white"/>
  <circle cx="58" cy="49.5" r="0.7" fill="white"/>
  <!-- Eyebrows (straighter for male) -->
  <path d="M40 46 Q43 45 46 46" fill="none" stroke="#8B4513" stroke-width="2" stroke-linecap="round"/>
  <path d="M54 46 Q57 45 60 46" fill="none" stroke="#8B4513" stroke-width="2" stroke-linecap="round"/>
  <!-- Nose -->
  <path d="M49 53 Q47 57 50 58 Q53 57 51 53Z" fill="#FDBCB4" filter="brightness(0.85)"/>
  <!-- Mouth -->
  <path d="M45 62 Q50 65 55 62" fill="none" stroke="#E07B54" stroke-width="1.8" stroke-linecap="round"/>
  
  <!-- Neck & Body -->
  <rect x="43" y="71" width="14" height="9" rx="3" fill="#FDBCB4"/>
  <path d="M24 100 Q28 78 50 76 Q72 78 76 100Z" fill="#E07B54"/>
</svg>