<svg xmlns="http://www.w3.org/2000/svg" viewBox="0 0 100 100" width="200" height="200">
  <circle cx="50" cy="50" r="50" fill="#fdd4c0"/>
  <path d="M50 19 Q33 21 32 40 Q34 46 50 44 Q66 46 68 40 Q67 21 50 19Z" fill="#1a1a1a"/><path d="M38 22 Q34 18 36 16" fill="none" stroke="#1a1a1a" stroke-width="3" stroke-linecap="round"/><path d="M50 19 Q48 14 52 13" fill="none" stroke="#1a1a1a" stroke-width="3" stroke-linecap="round"/><path d="M62 22 Q66 18 64 16" fill="none" stroke="#1a1a1a" stroke-width="3" stroke-linecap="round"/>
  <!-- Face -->
  <ellipse cx="50" cy="53" rx="17" ry="19" fill="#C68642"/>
  <!-- Ears -->
  <ellipse cx="33" cy="53" rx="3.5" ry="4.5" fill="#C68642"/>
  <ellipse cx="67" cy="53" rx="3.5" ry="4.5" fill="#C68642"/>
  <!-- Eyes -->
  <ellipse cx="43" cy="50" rx="3" ry="3" fill="white"/>
  <ellipse cx="57" cy="50" rx="3" ry="3" fill="white"/>
  <circle cx="43" cy="50.5" r="2" fill="#2C1810"/>
  <circle cx="57" cy="50.5" r="2" fill="#2C1810"/>
  <circle cx="44" cy="49.5" r="0.7" fill="white"/>
  <circle cx="58" cy="49.5" r="0.7" fill="white"/>
  <!-- Eyebrows (straighter for male) -->
  <path d="M40 46 Q43 45 46 46" fill="none" stroke="#1a1a1a" stroke-width="2" stroke-linecap="round"/>
  <path d="M54 46 Q57 45 60 46" fill="none" stroke="#1a1a1a" stroke-width="2" stroke-linecap="round"/>
  <!-- Nose -->
  <path d="M49 53 Q47 57 50 58 Q53 57 51 53Z" fill="#C68642" filter="brightness(0.85)"/>
  <!-- Mouth -->
  <path d="M45 62 Q50 65 55 62" fill="none" stroke="#D4845A" stroke-width="1.8" stroke-linecap="round"/>
  <path d="M37 60 Q50 70 63 60 Q65 68 50 72 Q35 68 37 60Z" fill="#1a1a1a" opacity="0.25"/>
  <!-- Neck & Body -->
  <rect x="43" y="71" width="14" height="9" rx="3" fill="#C68642"/>
  <path d="M24 100 Q28 78 50 76 Q72 78 76 100Z" fill="#D4845A"/>
</svg>